<svg xmlns="http://www.w3.org/2000/svg" viewBox="0 0 54.47 69.07"><defs><style>.cls-1{fill:#e91e63;}.cls-2{fill:#c2185b;}.cls-3{fill:#f06292;}.cls-4{fill:#eee;}</style></defs><g id="Camada_2" data-name="Camada 2"><g id="Layer_1" data-name="Layer 1"><path class="cls-1" d="M36.21,0H6.46A6.46,6.46,0,0,0,0,6.46V61.69a6.47,6.47,0,0,0,6.47,6.47H48.08a6.39,6.39,0,0,0,6.39-6.39V18.26Z"/><path class="cls-2" d="M48.08,68.16H6.47A6.47,6.47,0,0,1,0,61.69v.92a6.46,6.46,0,0,0,6.47,6.46H48.08a6.39,6.39,0,0,0,6.39-6.39v-.91A6.39,6.39,0,0,1,48.08,68.16Z"/><path class="cls-2" d="M34.38,0V11.79a8.3,8.3,0,0,0,8.29,8.29h11.8V18.26L36.21,0Z"/><path class="cls-3" d="M36.21,0V11.79a6.47,6.47,0,0,0,6.46,6.47h11.8Z"/><path class="cls-4" d="M11.94,21.22H10.18l-.32-1.5H8.35L8,21.22H6.37l2-9.27H10ZM9.61,18.28l-.49-2.94L8.6,18.28Z"/><path class="cls-4" d="M19.78,12l-2.12,9.27H16L13.87,12h1.7L16.88,18,18.21,12Z"/><path class="cls-4" d="M26.67,21.22H22.33V19.73h1.4V13.42h-1.4V12h4.34v1.47H25.3v6.31h1.37Z"/><path class="cls-4" d="M29.34,41.71H15.92a2.87,2.87,0,0,0-2.86,2.86V54.93a2.87,2.87,0,0,0,2.86,2.86H29.34a2.87,2.87,0,0,0,2.86-2.86V44.57A2.87,2.87,0,0,0,29.34,41.71Zm1.57,13.22a1.57,1.57,0,0,1-1.57,1.57H15.92a1.58,1.58,0,0,1-1.57-1.57V44.57A1.58,1.58,0,0,1,15.92,43H29.34a1.57,1.57,0,0,1,1.57,1.57Z"/><path class="cls-4" d="M33.11,45.86v7.78l8.29,4.6v-17Zm7,10.19L34.4,52.87V46.63l5.71-3.18Z"/></g></g></svg>