<svg xmlns="http://www.w3.org/2000/svg" viewBox="0 0 54.47 69.07"><defs><style>.cls-1{fill:#8bc34a;}.cls-2{fill:#7cb342;}.cls-3{fill:#aed581;}.cls-4{fill:#eee;}</style></defs><g id="Camada_2" data-name="Camada 2"><g id="Layer_1" data-name="Layer 1"><path class="cls-1" d="M36.21,0H6.46A6.46,6.46,0,0,0,0,6.46V61.69a6.47,6.47,0,0,0,6.47,6.47H48.08a6.39,6.39,0,0,0,6.39-6.39V18.26Z"/><path class="cls-2" d="M48.08,68.16H6.47A6.47,6.47,0,0,1,0,61.69v.92a6.46,6.46,0,0,0,6.47,6.46H48.08a6.39,6.39,0,0,0,6.39-6.39v-.91A6.39,6.39,0,0,1,48.08,68.16Z"/><path class="cls-2" d="M34.38,0V11.79a8.3,8.3,0,0,0,8.29,8.29h11.8V18.26L36.21,0Z"/><path class="cls-3" d="M36.21,0V11.79a6.47,6.47,0,0,0,6.46,6.47h11.8Z"/><path class="cls-4" d="M7.69,18.58a1.42,1.42,0,0,0,.27,1,.94.94,0,0,0,.74.31,1,1,0,0,0,.63-.22,1,1,0,0,0,.31-.73h1.6A2.35,2.35,0,0,1,8.7,21.34a2.57,2.57,0,0,1-1.93-.67,2.82,2.82,0,0,1-.65-2v-4.1a2.85,2.85,0,0,1,.65-2,2.61,2.61,0,0,1,1.93-.67,2.35,2.35,0,0,1,2.54,2.46H9.64a1,1,0,0,0-.31-.73,1,1,0,0,0-.63-.22.91.91,0,0,0-.74.31,1.39,1.39,0,0,0-.27.94Z"/><path class="cls-4" d="M18.93,18.38c0,1.86-.84,2.78-2.53,2.78H13.78V12H16.4c1.69,0,2.53,1,2.53,2.84ZM17.4,14.89a2.16,2.16,0,0,0-.26-1.1.82.82,0,0,0-.74-.43H15.32V19.7H16.4c.67,0,1-.47,1-1.41Z"/><path class="cls-4" d="M26.92,21.22H24.85l-1.76-3.67v3.67H21.43V12H24a2.52,2.52,0,0,1,2.73,2.76,2.73,2.73,0,0,1-.5,1.76,2.71,2.71,0,0,1-1.34.84ZM25,15a1.64,1.64,0,0,0-.34-1.2,1.5,1.5,0,0,0-1-.32h-.57V16.5h.76a1,1,0,0,0,.88-.43A1.86,1.86,0,0,0,25,15Z"/><path class="cls-4" d="M27.23,38.45l-10,12.81v9.79h1.51V52.28h3.78v8.77H24V52.28h6.45v8.77H32V52.28h3.79v8.77h1.51V51.26ZM30.41,45,35,50.76H19.51L24.06,45Z"/></g></g></svg>