<svg xmlns="http://www.w3.org/2000/svg" viewBox="0 0 54.47 69.07"><defs><style>.cls-1{fill:#2196f3;}.cls-2{fill:#1e88e5;}.cls-3{fill:#64b5f6;}.cls-4{fill:#eee;}</style></defs><g id="Camada_2" data-name="Camada 2"><g id="Layer_1" data-name="Layer 1"><path class="cls-1" d="M36.21,0H6.46A6.46,6.46,0,0,0,0,6.46V61.69a6.47,6.47,0,0,0,6.47,6.47H48.08a6.39,6.39,0,0,0,6.39-6.39V18.26Z"/><path class="cls-2" d="M48.08,68.16H6.47A6.47,6.47,0,0,1,0,61.69v.92a6.46,6.46,0,0,0,6.47,6.46H48.08a6.39,6.39,0,0,0,6.39-6.39v-.91A6.39,6.39,0,0,1,48.08,68.16Z"/><path class="cls-2" d="M34.38,0V11.79a8.3,8.3,0,0,0,8.29,8.29h11.8V18.26L36.21,0Z"/><path class="cls-3" d="M36.21,0V11.79a6.47,6.47,0,0,0,6.46,6.47h11.8Z"/><rect class="cls-4" x="11.72" y="40.16" width="31.02" height="1.51"/><rect class="cls-4" x="11.72" y="44.58" width="31.02" height="1.51"/><rect class="cls-4" x="11.72" y="48.99" width="31.02" height="1.51"/><rect class="cls-4" x="11.72" y="53.41" width="17.64" height="1.51"/><rect class="cls-4" x="11.72" y="57.83" width="17.64" height="1.51"/><path class="cls-4" d="M11.44,18.38c0,1.86-.84,2.78-2.53,2.78H6.29V12H8.91c1.69,0,2.53,1,2.53,2.84ZM9.91,14.89a2.06,2.06,0,0,0-.27-1.1.81.81,0,0,0-.73-.43H7.82V19.7H8.91c.66,0,1-.47,1-1.41Z"/><path class="cls-4" d="M19.2,18.39a3.15,3.15,0,0,1-.69,2.18,2.49,2.49,0,0,1-2,.77,2.46,2.46,0,0,1-2-.8,3.24,3.24,0,0,1-.68-2.15v-3.6a3.23,3.23,0,0,1,.68-2.16,2.47,2.47,0,0,1,2-.81,2.5,2.5,0,0,1,2,.78,3.16,3.16,0,0,1,.69,2.19Zm-3.77.24a1.28,1.28,0,0,0,.32,1,1.11,1.11,0,0,0,1.57,0,1.36,1.36,0,0,0,.32-1v-4.1a1.38,1.38,0,0,0-.32-1,1.1,1.1,0,0,0-.78-.32,1.07,1.07,0,0,0-.79.32,1.3,1.3,0,0,0-.32,1Z"/><path class="cls-4" d="M23.2,18.58a1.48,1.48,0,0,0,.26,1,1,1,0,0,0,.75.31,1,1,0,0,0,.63-.22,1,1,0,0,0,.31-.73h1.6a2.35,2.35,0,0,1-2.54,2.45,2.57,2.57,0,0,1-1.93-.67,2.78,2.78,0,0,1-.66-2v-4.1a2.81,2.81,0,0,1,.66-2,2.61,2.61,0,0,1,1.93-.67,2.35,2.35,0,0,1,2.54,2.46h-1.6a1,1,0,0,0-.31-.73,1,1,0,0,0-.63-.22.93.93,0,0,0-.75.31,1.44,1.44,0,0,0-.26.94Z"/><polygon class="cls-4" points="40.95 53.41 39.6 57.04 38.4 53.41 36.78 53.41 35.43 57.04 34.23 53.41 32.63 53.41 34.59 59.34 36.2 59.34 37.55 55.71 38.75 59.34 40.37 59.34 42.58 53.41 40.95 53.41"/></g></g></svg>