<svg xmlns="http://www.w3.org/2000/svg" viewBox="0 0 54.47 69.07"><defs><style>.cls-1{fill:#ffc107;}.cls-2{fill:#ffb300;}.cls-3{fill:#ffd54f;}.cls-4{fill:#eee;}</style></defs><g id="Camada_2" data-name="Camada 2"><g id="Layer_1" data-name="Layer 1"><path class="cls-1" d="M36.21,0H6.46A6.46,6.46,0,0,0,0,6.46V61.69a6.47,6.47,0,0,0,6.47,6.47H48.08a6.39,6.39,0,0,0,6.39-6.39V18.26Z"/><path class="cls-2" d="M48.08,68.16H6.47A6.47,6.47,0,0,1,0,61.69v.92a6.46,6.46,0,0,0,6.47,6.46H48.08a6.39,6.39,0,0,0,6.39-6.39v-.91A6.39,6.39,0,0,1,48.08,68.16Z"/><path class="cls-2" d="M34.38,0V11.79a8.3,8.3,0,0,0,8.29,8.29h11.8V18.26L36.21,0Z"/><path class="cls-3" d="M36.21,0V11.79a6.47,6.47,0,0,0,6.46,6.47h11.8Z"/><path class="cls-4" d="M11,21.22H6.31V12H11v1.47H8v2.36h2.41v1.5H8v2.38H11Z"/><path class="cls-4" d="M19.11,15a3.41,3.41,0,0,1-.67,2.31,2.61,2.61,0,0,1-2.07.77h-1v3.16H13.77V12h2.62a2.87,2.87,0,0,1,1.17.22,2.29,2.29,0,0,1,.85.61,2.58,2.58,0,0,1,.52,1A4.06,4.06,0,0,1,19.11,15Zm-1.67,0a1.82,1.82,0,0,0-.3-1.15,1.19,1.19,0,0,0-1-.37h-.76V16.5h.76C17,16.5,17.44,16,17.44,15Z"/><path class="cls-4" d="M26.73,18.52a3,3,0,0,1-.68,2.06,2.45,2.45,0,0,1-1.94.76,2.68,2.68,0,0,1-1.94-.63,2.86,2.86,0,0,1-.74-1.91H23a1.1,1.1,0,0,0,.35.74,1.45,1.45,0,0,0,.9.23.93.93,0,0,0,1-1,1.15,1.15,0,0,0-.2-.67,2.15,2.15,0,0,0-.76-.55l-1-.49a6.18,6.18,0,0,1-.94-.66,2.29,2.29,0,0,1-.62-.82,3,3,0,0,1-.2-1.17,2.59,2.59,0,0,1,.69-1.91,2.52,2.52,0,0,1,1.89-.7,2.46,2.46,0,0,1,1.87.64,2.6,2.6,0,0,1,.62,1.8H25.07a.88.88,0,0,0-.27-.75,1.1,1.1,0,0,0-.77-.27,1.13,1.13,0,0,0-.79.24.85.85,0,0,0-.27.68,1,1,0,0,0,.16.6,1.64,1.64,0,0,0,.56.49,4.14,4.14,0,0,0,.59.31l.6.28c.19.1.39.21.58.33a3.06,3.06,0,0,1,.53.42,2.23,2.23,0,0,1,.57.86A3.12,3.12,0,0,1,26.73,18.52Z"/><path class="cls-4" d="M39,55.16A11.79,11.79,0,0,0,28.89,44v-.83h8.32a1.12,1.12,0,0,0,1,.68,1.14,1.14,0,0,0,0-2.28,1.12,1.12,0,0,0-1,.69H28.89V41H25.58v1.2H17.26a1.14,1.14,0,1,0,0,.91h8.32V44a11.78,11.78,0,0,0-10.1,11.19h-.92v3.31h3.31V55.16H17a10.24,10.24,0,0,1,20.47,0H36.6v3.31h3.3V55.16Zm-22,2.4H15.47V56.08H17Zm9.53-15.62H28v1.48H26.49ZM39,57.56H37.51V56.08H39Z"/></g></g></svg>