<svg xmlns="http://www.w3.org/2000/svg" viewBox="0 0 251.78 181.32"><defs><style>.cls-1{fill:#3bafda;}.cls-2{fill:#f1f2f2;}.cls-3{fill:#fff;}.cls-4{fill:#4fc1e9;}</style></defs><g id="Camada_2" data-name="Camada 2"><g id="Layer_1" data-name="Layer 1"><path class="cls-1" d="M231.86,14.65h-113C112.73,14.65,93.37,0,87.3,0H19.92a6.18,6.18,0,0,0-6.18,6.17V160.33a6.18,6.18,0,0,0,6.18,6.18H231.86a6.18,6.18,0,0,0,6.17-6.18V20.82A6.17,6.17,0,0,0,231.86,14.65Z"/><path class="cls-2" d="M230.26,29.87H21.51a2.41,2.41,0,0,0-2.43,2.57l6.83,122.22a2.5,2.5,0,0,0,2.54,2.25H223.33a2.5,2.5,0,0,0,2.54-2.25L232.7,32.44A2.41,2.41,0,0,0,230.26,29.87Z"/><path class="cls-3" d="M233.57,37H18.2a2.49,2.49,0,0,0-2.51,2.66l7,126.09a2.57,2.57,0,0,0,2.61,2.33H226.42a2.58,2.58,0,0,0,2.62-2.33l7.05-126.09A2.49,2.49,0,0,0,233.57,37Z"/><path class="cls-4" d="M246,43.47H5.75c-3.5,0-6.09,3.13-5.71,6.88L13.25,175.8a6.19,6.19,0,0,0,6.07,5.52H232.45a6.19,6.19,0,0,0,6.07-5.52L251.74,50.35C252.12,46.6,249.52,43.47,246,43.47Z"/></g></g></svg>