<svg xmlns="http://www.w3.org/2000/svg" viewBox="0 0 54.47 69.07"><defs><style>.cls-1{fill:#795548;}.cls-2{fill:#6d4c41;}.cls-3{fill:#a1887f;}.cls-4{fill:#eee;}</style></defs><g id="Camada_2" data-name="Camada 2"><g id="Layer_1" data-name="Layer 1"><path class="cls-1" d="M36.21,0H6.46A6.46,6.46,0,0,0,0,6.46V61.69a6.47,6.47,0,0,0,6.47,6.47H48.08a6.39,6.39,0,0,0,6.39-6.39V18.26Z"/><path class="cls-2" d="M48.08,68.16H6.47A6.47,6.47,0,0,1,0,61.69v.92a6.46,6.46,0,0,0,6.47,6.46H48.08a6.39,6.39,0,0,0,6.39-6.39v-.91A6.39,6.39,0,0,1,48.08,68.16Z"/><path class="cls-2" d="M34.38,0V11.79a8.3,8.3,0,0,0,8.29,8.29h11.8V18.26L36.21,0Z"/><path class="cls-3" d="M36.21,0V11.79a6.47,6.47,0,0,0,6.46,6.47h11.8Z"/><path class="cls-4" d="M11.4,21.22H10.19V20.4a1.31,1.31,0,0,1-.5.65,2,2,0,0,1-1.2.29,1.9,1.9,0,0,1-.81-.17A2,2,0,0,1,7,20.68a2.34,2.34,0,0,1-.45-.77,2.86,2.86,0,0,1-.17-1v-4.4a2.73,2.73,0,0,1,.68-2A2.56,2.56,0,0,1,9,11.82a2.56,2.56,0,0,1,1.77.6,2.51,2.51,0,0,1,.76,1.86H9.91a.89.89,0,0,0-.28-.72A1,1,0,0,0,9,13.33a.88.88,0,0,0-.73.34,1.38,1.38,0,0,0-.28.91v4.11a1.18,1.18,0,0,0,.28.88,1,1,0,0,0,.73.27,1,1,0,0,0,.71-.27,1.27,1.27,0,0,0,.25-.88V17.3H9.18V16H11.4Z"/><path class="cls-4" d="M18.79,21.22H14.45V19.73h1.4V13.42h-1.4V12h4.34v1.47H17.42v6.31h1.37Z"/><path class="cls-4" d="M26.65,13.42H23.59v2.36h2.53v1.5H23.59v3.94H21.94V12h4.71Z"/><path class="cls-4" d="M15.6,56.13A5.13,5.13,0,1,1,20.73,51,5.13,5.13,0,0,1,15.6,56.13Zm0-8.74A3.61,3.61,0,1,0,19.22,51,3.61,3.61,0,0,0,15.6,47.39Z"/><path class="cls-4" d="M44,56.13H33.74V45.87H44Zm-8.74-1.52h7.22V47.39H35.25Z"/><path class="cls-4" d="M32,56.13h-11L26.55,42Zm-8.73-1.52h6.52l-3.26-8.39Z"/></g></g></svg>