<svg xmlns="http://www.w3.org/2000/svg" viewBox="0 0 54.47 69.07"><defs><style>.cls-1{fill:#ff5722;}.cls-2{fill:#e64a19;}.cls-3{fill:#ff8a65;}.cls-4{fill:#eee;}</style></defs><g id="Camada_2" data-name="Camada 2"><g id="Layer_1" data-name="Layer 1"><path class="cls-1" d="M36.21,0H6.46A6.46,6.46,0,0,0,0,6.46V61.69a6.47,6.47,0,0,0,6.47,6.47H48.08a6.39,6.39,0,0,0,6.39-6.39V18.26Z"/><path class="cls-2" d="M48.08,68.16H6.47A6.47,6.47,0,0,1,0,61.69v.92a6.46,6.46,0,0,0,6.47,6.46H48.08a6.39,6.39,0,0,0,6.39-6.39v-.91A6.39,6.39,0,0,1,48.08,68.16Z"/><path class="cls-2" d="M34.38,0V11.79a8.3,8.3,0,0,0,8.29,8.29h11.8V18.26L36.21,0Z"/><path class="cls-3" d="M36.21,0V11.79a6.47,6.47,0,0,0,6.46,6.47h11.8Z"/><path class="cls-4" d="M9.16,21.22H7.5V17.31H5.71v3.91H4.07V12H5.71v3.77H7.5V12H9.16Z"/><path class="cls-4" d="M17.13,13.51h-2v7.71H13.45V13.51h-2V12h5.7Z"/><path class="cls-4" d="M24.66,21.22H23.31V15.53L22,19.59l-1.34-4.06v5.69H19.24V12h1.68l1,3.57L23.1,12h1.56Z"/><path class="cls-4" d="M32.14,21.22H27.28V12h1.64v7.71h3.22Z"/><path class="cls-4" d="M20.74,54.4,11.2,49.66v-2l9.54-4.76v1.91L13,48.68l7.78,3.81Z"/><path class="cls-4" d="M23.12,60H21.19l8.44-20.54h1.94Z"/><path class="cls-4" d="M32.81,52.49l7.79-3.81-7.79-3.84V42.93l9.54,4.76v2L32.81,54.4Z"/></g></g></svg>