<svg xmlns="http://www.w3.org/2000/svg" viewBox="0 0 54.47 69.07"><defs><style>.cls-1{fill:#afb42b;}.cls-2{fill:#9e9d24;}.cls-3{fill:#d4e157;}.cls-4{fill:#eee;}</style></defs><g id="Camada_2" data-name="Camada 2"><g id="Layer_1" data-name="Layer 1"><path class="cls-1" d="M36.21,0H6.46A6.46,6.46,0,0,0,0,6.46V61.69a6.47,6.47,0,0,0,6.47,6.47H48.08a6.39,6.39,0,0,0,6.39-6.39V18.26Z"/><path class="cls-2" d="M48.08,68.16H6.47A6.47,6.47,0,0,1,0,61.69v.92a6.46,6.46,0,0,0,6.47,6.46H48.08a6.39,6.39,0,0,0,6.39-6.39v-.91A6.39,6.39,0,0,1,48.08,68.16Z"/><path class="cls-2" d="M34.38,0V11.79a8.3,8.3,0,0,0,8.29,8.29h11.8V18.26L36.21,0Z"/><path class="cls-3" d="M36.21,0V11.79a6.47,6.47,0,0,0,6.46,6.47h11.8Z"/><path class="cls-4" d="M11.12,18a3.72,3.72,0,0,1-.68,2.36,2.49,2.49,0,0,1-2.06.85h-2V19.66H8.17a1.5,1.5,0,0,0,.47-.08,1.06,1.06,0,0,0,.41-.26,1.31,1.31,0,0,0,.29-.48,2.39,2.39,0,0,0,.11-.76V13.42H8.58V12h2.54Z"/><path class="cls-4" d="M19.2,15a3.46,3.46,0,0,1-.67,2.31,2.63,2.63,0,0,1-2.08.77h-1v3.16H13.85V12h2.62a2.81,2.81,0,0,1,1.17.22,2.29,2.29,0,0,1,.85.61,2.75,2.75,0,0,1,.53,1A4.06,4.06,0,0,1,19.2,15Zm-1.68,0a1.82,1.82,0,0,0-.3-1.15,1.19,1.19,0,0,0-1-.37h-.77V16.5h.77C17.1,16.5,17.52,16,17.52,15Z"/><path class="cls-4" d="M26.52,21.22H25.3V20.4a1.23,1.23,0,0,1-.49.65,2,2,0,0,1-1.2.29,1.87,1.87,0,0,1-.81-.17,1.9,1.9,0,0,1-.67-.49,2.34,2.34,0,0,1-.45-.77,2.64,2.64,0,0,1-.17-1v-4.4a2.73,2.73,0,0,1,.68-2,2.56,2.56,0,0,1,1.9-.67,2.56,2.56,0,0,1,1.77.6,2.51,2.51,0,0,1,.76,1.86H25a.89.89,0,0,0-.27-.72,1,1,0,0,0-.66-.23.87.87,0,0,0-.73.34,1.38,1.38,0,0,0-.28.91v4.11a1.18,1.18,0,0,0,.28.88,1,1,0,0,0,.73.27.91.91,0,0,0,.7-.27,1.27,1.27,0,0,0,.26-.88V17.3H24.3V16h2.22Z"/><path class="cls-4" d="M41.23,40.16H11.72V59.34h31V40.16Zm-28,17,.09.09,7-7L24,54l6.4-6.4,10.2,10.2H13.24Zm28-.85L30.41,45.49,24,51.89l-3.73-3.73-7,7.05V41.67h28Z"/><path class="cls-4" d="M24.22,47.35a1.75,1.75,0,1,0-1.74-1.74A1.74,1.74,0,0,0,24.22,47.35Z"/></g></g></svg>