<svg xmlns="http://www.w3.org/2000/svg" viewBox="0 0 54.47 69.07"><defs><style>.cls-1{fill:#f44336;}.cls-2{fill:#e53935;}.cls-3{fill:#e57373;}.cls-4{fill:#eee;}</style></defs><g id="Camada_2" data-name="Camada 2"><g id="Layer_1" data-name="Layer 1"><path class="cls-1" d="M36.21,0H6.46A6.46,6.46,0,0,0,0,6.46V61.69a6.47,6.47,0,0,0,6.47,6.47H48.08a6.39,6.39,0,0,0,6.39-6.39V18.26Z"/><path class="cls-2" d="M48.08,68.16H6.47A6.47,6.47,0,0,1,0,61.69v.92a6.46,6.46,0,0,0,6.47,6.46H48.08a6.39,6.39,0,0,0,6.39-6.39v-.91A6.39,6.39,0,0,1,48.08,68.16Z"/><path class="cls-2" d="M34.38,0V11.79a8.3,8.3,0,0,0,8.29,8.29h11.8V18.26L36.21,0Z"/><path class="cls-3" d="M36.21,0V11.79a6.47,6.47,0,0,0,6.46,6.47h11.8Z"/><path class="cls-4" d="M11.74,15a3.41,3.41,0,0,1-.67,2.31A2.63,2.63,0,0,1,9,18.06H8v3.16H6.4V12H9a2.87,2.87,0,0,1,1.17.22,2.37,2.37,0,0,1,.85.61,2.73,2.73,0,0,1,.52,1A4.06,4.06,0,0,1,11.74,15Zm-1.67,0a1.88,1.88,0,0,0-.3-1.15,1.22,1.22,0,0,0-1-.37H8V16.5H8.8C9.64,16.5,10.07,16,10.07,15Z"/><path class="cls-4" d="M19.19,18.38c0,1.86-.84,2.78-2.53,2.78H14V12h2.62c1.69,0,2.53,1,2.53,2.84Zm-1.53-3.49a2.06,2.06,0,0,0-.27-1.1.79.79,0,0,0-.73-.43H15.57V19.7h1.09c.66,0,1-.47,1-1.41Z"/><path class="cls-4" d="M26.64,13.42H23.59v2.36h2.53v1.5H23.59v3.94H21.94V12h4.7Z"/><rect class="cls-4" x="20.54" y="40.16" width="22.2" height="1.51"/><rect class="cls-4" x="20.54" y="44.58" width="22.2" height="1.51"/><rect class="cls-4" x="11.72" y="48.99" width="31.02" height="1.51"/><rect class="cls-4" x="11.72" y="53.41" width="31.02" height="1.51"/><rect class="cls-4" x="11.72" y="57.83" width="31.02" height="1.51"/><path class="cls-4" d="M11.72,40.16v5.93h5.93V40.16Zm4.42,4.41h-2.9v-2.9h2.9Z"/></g></g></svg>