<svg xmlns="http://www.w3.org/2000/svg" viewBox="0 0 54.47 69.07"><defs><style>.cls-1{fill:#009688;}.cls-2{fill:#00897b;}.cls-3{fill:#4db6ac;}.cls-4{fill:#eee;}</style></defs><g id="Camada_2" data-name="Camada 2"><g id="Layer_1" data-name="Layer 1"><path class="cls-1" d="M36.21,0H6.46A6.46,6.46,0,0,0,0,6.46V61.69a6.47,6.47,0,0,0,6.47,6.47H48.08a6.39,6.39,0,0,0,6.39-6.39V18.26Z"/><path class="cls-2" d="M48.08,68.16H6.47A6.47,6.47,0,0,1,0,61.69v.92a6.46,6.46,0,0,0,6.47,6.46H48.08a6.39,6.39,0,0,0,6.39-6.39v-.91A6.39,6.39,0,0,1,48.08,68.16Z"/><path class="cls-2" d="M34.38,0V11.79a8.3,8.3,0,0,0,8.29,8.29h11.8V18.26L36.21,0Z"/><path class="cls-3" d="M36.21,0V11.79a6.47,6.47,0,0,0,6.46,6.47h11.8Z"/><path class="cls-4" d="M11.64,15A3.41,3.41,0,0,1,11,17.29a2.62,2.62,0,0,1-2.07.77h-1v3.16H6.3V12H8.92a2.87,2.87,0,0,1,1.17.22,2.29,2.29,0,0,1,.85.61,2.58,2.58,0,0,1,.52,1A4.06,4.06,0,0,1,11.64,15ZM10,15a1.82,1.82,0,0,0-.3-1.15,1.19,1.19,0,0,0-1-.37H7.94V16.5H8.7C9.55,16.5,10,16,10,15Z"/><path class="cls-4" d="M19.13,21.22H17.51L15.4,15.8v5.42H13.89V12h1.89l1.88,5.42V12h1.47Z"/><path class="cls-4" d="M26.63,21.22H25.42V20.4a1.28,1.28,0,0,1-.49.65,2,2,0,0,1-1.21.29,1.9,1.9,0,0,1-.81-.17,2.1,2.1,0,0,1-.67-.49,2.34,2.34,0,0,1-.45-.77,2.86,2.86,0,0,1-.17-1v-4.4a2.73,2.73,0,0,1,.68-2,2.59,2.59,0,0,1,1.91-.67,2.6,2.6,0,0,1,1.77.6,2.55,2.55,0,0,1,.76,1.86h-1.6a.86.86,0,0,0-.28-.72,1,1,0,0,0-.65-.23.89.89,0,0,0-.74.34,1.43,1.43,0,0,0-.27.91v4.11a1.22,1.22,0,0,0,.27.88,1,1,0,0,0,.74.27.93.93,0,0,0,.7-.27,1.27,1.27,0,0,0,.25-.88V17.3h-.75V16h2.22Z"/><rect class="cls-4" x="12.15" y="40.15" width="2.74" height="2.74"/><rect class="cls-4" x="17.63" y="40.15" width="2.74" height="2.74"/><rect class="cls-4" x="23.12" y="40.15" width="2.74" height="2.74"/><rect class="cls-4" x="28.6" y="40.15" width="2.74" height="2.74"/><rect class="cls-4" x="34.09" y="40.15" width="2.74" height="2.74"/><rect class="cls-4" x="39.58" y="40.15" width="2.74" height="2.74"/><rect class="cls-4" x="14.89" y="42.89" width="2.74" height="2.74"/><rect class="cls-4" x="20.38" y="42.89" width="2.74" height="2.74"/><rect class="cls-4" x="25.86" y="42.89" width="2.74" height="2.74"/><rect class="cls-4" x="31.35" y="42.89" width="2.74" height="2.74"/><rect class="cls-4" x="36.83" y="42.89" width="2.74" height="2.74"/><polygon class="cls-4" points="36.83 48.37 36.83 45.63 34.09 45.63 34.09 48.37 31.35 48.37 31.35 45.63 28.6 45.63 28.6 48.37 25.86 48.37 25.86 45.63 23.12 45.63 23.12 48.37 20.38 48.37 20.38 45.63 17.63 45.63 17.63 48.37 14.89 48.37 14.89 45.63 12.15 45.63 12.15 48.37 14.89 48.37 14.89 51.11 17.63 51.11 17.63 48.37 20.38 48.37 20.38 51.11 23.12 51.11 23.12 48.37 25.86 48.37 25.86 51.11 28.6 51.11 28.6 48.37 31.35 48.37 31.35 51.11 34.09 51.11 34.09 48.37 36.83 48.37 36.83 51.11 39.58 51.11 39.58 48.37 42.32 48.37 42.32 45.63 39.58 45.63 39.58 48.37 36.83 48.37"/><rect class="cls-4" x="12.15" y="51.12" width="2.74" height="2.74"/><rect class="cls-4" x="17.63" y="51.12" width="2.74" height="2.74"/><rect class="cls-4" x="23.12" y="51.12" width="2.74" height="2.74"/><rect class="cls-4" x="28.6" y="51.12" width="2.74" height="2.74"/><rect class="cls-4" x="34.09" y="51.12" width="2.74" height="2.74"/><rect class="cls-4" x="39.58" y="51.12" width="2.74" height="2.74"/><rect class="cls-4" x="14.89" y="53.86" width="2.74" height="2.74"/><rect class="cls-4" x="20.38" y="53.86" width="2.74" height="2.74"/><rect class="cls-4" x="25.86" y="53.86" width="2.74" height="2.74"/><rect class="cls-4" x="31.35" y="53.86" width="2.74" height="2.74"/><rect class="cls-4" x="36.83" y="53.86" width="2.74" height="2.74"/><rect class="cls-4" x="12.15" y="56.61" width="2.74" height="2.74"/><rect class="cls-4" x="17.63" y="56.61" width="2.74" height="2.74"/><rect class="cls-4" x="23.12" y="56.61" width="2.74" height="2.74"/><rect class="cls-4" x="28.6" y="56.61" width="2.74" height="2.74"/><rect class="cls-4" x="34.09" y="56.61" width="2.74" height="2.74"/><rect class="cls-4" x="39.58" y="56.61" width="2.74" height="2.74"/></g></g></svg>