<svg xmlns="http://www.w3.org/2000/svg" viewBox="0 0 54.47 69.07"><defs><style>.cls-1{fill:#ff9800;}.cls-2{fill:#f57c00;}.cls-3{fill:#ffb74d;}.cls-4{fill:#eee;}</style></defs><g id="Camada_2" data-name="Camada 2"><g id="Layer_1" data-name="Layer 1"><path class="cls-1" d="M36.21,0H6.46A6.46,6.46,0,0,0,0,6.46V61.69a6.47,6.47,0,0,0,6.47,6.47H48.08a6.39,6.39,0,0,0,6.39-6.39V18.26Z"/><path class="cls-2" d="M48.08,68.16H6.47A6.47,6.47,0,0,1,0,61.69v.92a6.46,6.46,0,0,0,6.47,6.46H48.08a6.39,6.39,0,0,0,6.39-6.39v-.91A6.39,6.39,0,0,1,48.08,68.16Z"/><path class="cls-2" d="M34.38,0V11.79a8.3,8.3,0,0,0,8.29,8.29h11.8V18.26L36.21,0Z"/><path class="cls-3" d="M36.21,0V11.79a6.47,6.47,0,0,0,6.46,6.47h11.8Z"/><path class="cls-4" d="M11.74,15a3.41,3.41,0,0,1-.67,2.31A2.63,2.63,0,0,1,9,18.06H8v3.16H6.4V12H9a2.87,2.87,0,0,1,1.17.22,2.37,2.37,0,0,1,.85.61,2.73,2.73,0,0,1,.52,1A4.06,4.06,0,0,1,11.74,15Zm-1.68,0a1.82,1.82,0,0,0-.3-1.15,1.19,1.19,0,0,0-1-.37H8V16.5H8.8C9.64,16.5,10.06,16,10.06,15Z"/><path class="cls-4" d="M19.41,15a3.46,3.46,0,0,1-.67,2.31,2.63,2.63,0,0,1-2.08.77h-1v3.16H14.06V12h2.62a2.81,2.81,0,0,1,1.17.22,2.29,2.29,0,0,1,.85.61,2.75,2.75,0,0,1,.53,1A4.06,4.06,0,0,1,19.41,15Zm-1.68,0a1.82,1.82,0,0,0-.3-1.15,1.19,1.19,0,0,0-1-.37H15.7V16.5h.77C17.31,16.5,17.73,16,17.73,15Z"/><path class="cls-4" d="M27.13,13.51h-2v7.71H23.45V13.51h-2V12h5.7Z"/><path class="cls-4" d="M26.32,60.44V48.84h11.6v.91A10.7,10.7,0,0,1,27.23,60.44Zm1.82-9.78v7.91a8.88,8.88,0,0,0,7.91-7.91Z"/><path class="cls-4" d="M25.22,58.38A8.86,8.86,0,1,1,35.86,47.74h1.87a10.69,10.69,0,1,0-12.51,12.5Z"/></g></g></svg>