<svg xmlns="http://www.w3.org/2000/svg" viewBox="0 0 54.47 69.07"><defs><style>.cls-1{fill:#03a9f4;}.cls-2{fill:#039be5;}.cls-3{fill:#4fc3f7;}.cls-4{fill:#eee;}</style></defs><g id="Camada_2" data-name="Camada 2"><g id="Layer_1" data-name="Layer 1"><path class="cls-1" d="M36.21,0H6.46A6.46,6.46,0,0,0,0,6.46V61.69a6.47,6.47,0,0,0,6.47,6.47H48.08a6.39,6.39,0,0,0,6.39-6.39V18.26Z"/><path class="cls-2" d="M48.08,68.16H6.47A6.47,6.47,0,0,1,0,61.69v.92a6.46,6.46,0,0,0,6.47,6.46H48.08a6.39,6.39,0,0,0,6.39-6.39v-.91A6.39,6.39,0,0,1,48.08,68.16Z"/><path class="cls-2" d="M34.38,0V11.79a8.3,8.3,0,0,0,8.29,8.29h11.8V18.26L36.21,0Z"/><path class="cls-3" d="M36.21,0V11.79a6.47,6.47,0,0,0,6.46,6.47h11.8Z"/><path class="cls-4" d="M11.63,15A3.41,3.41,0,0,1,11,17.29a2.63,2.63,0,0,1-2.08.77h-1v3.16H6.29V12H8.91a2.87,2.87,0,0,1,1.17.22,2.37,2.37,0,0,1,.85.61,2.73,2.73,0,0,1,.52,1A4.06,4.06,0,0,1,11.63,15ZM10,15a1.82,1.82,0,0,0-.3-1.15,1.21,1.21,0,0,0-1-.37H7.92V16.5h.77C9.54,16.5,10,16,10,15Z"/><path class="cls-4" d="M19.25,18.52a3,3,0,0,1-.68,2.06,2.45,2.45,0,0,1-1.94.76,2.68,2.68,0,0,1-1.94-.63,2.92,2.92,0,0,1-.75-1.91h1.52a1.11,1.11,0,0,0,.36.74,1.45,1.45,0,0,0,.9.23.93.93,0,0,0,1-1,1.09,1.09,0,0,0-.21-.67,2,2,0,0,0-.75-.55c-.32-.15-.63-.32-1-.49a5.73,5.73,0,0,1-.94-.66,2.18,2.18,0,0,1-.62-.82,2.8,2.8,0,0,1-.2-1.17,2.59,2.59,0,0,1,.69-1.91,2.52,2.52,0,0,1,1.89-.7,2.46,2.46,0,0,1,1.87.64,2.64,2.64,0,0,1,.62,1.8H17.59a.94.94,0,0,0-.27-.75,1.1,1.1,0,0,0-.77-.27,1.16,1.16,0,0,0-.8.24.88.88,0,0,0-.26.68,1.11,1.11,0,0,0,.15.6,1.69,1.69,0,0,0,.57.49,4,4,0,0,0,.58.31c.21.09.41.18.6.28s.39.21.59.33a3.49,3.49,0,0,1,.53.42,2.23,2.23,0,0,1,.57.86A3.12,3.12,0,0,1,19.25,18.52Z"/><path class="cls-4" d="M26.75,18.38c0,1.86-.84,2.78-2.53,2.78H21.6V12h2.62c1.69,0,2.53,1,2.53,2.84Zm-1.53-3.49a2.06,2.06,0,0,0-.27-1.1.81.81,0,0,0-.73-.43H23.13V19.7h1.09c.66,0,1-.47,1-1.41Z"/><path class="cls-4" d="M30.53,53H16.22V38.74H30.53ZM17.74,51.53H29V40.26H17.74Z"/><polygon class="cls-4" points="31.44 46.46 31.44 47.97 36.73 47.97 36.73 59.24 25.45 59.24 25.45 53.96 23.94 53.96 23.94 60.76 38.24 60.76 38.24 46.46 31.44 46.46"/><polygon class="cls-4" points="23.94 46.46 23.94 52.44 25.45 52.44 25.45 47.97 29.93 47.97 29.93 46.46 23.94 46.46"/></g></g></svg>