<svg xmlns="http://www.w3.org/2000/svg" viewBox="0 0 54.47 69.07"><defs><style>.cls-1{fill:#607d8b;}.cls-2{fill:#546e7a;}.cls-3{fill:#90a4ae;}.cls-4{fill:#eee;}</style></defs><g id="Camada_2" data-name="Camada 2"><g id="Layer_1" data-name="Layer 1"><path class="cls-1" d="M36.21,0H6.46A6.46,6.46,0,0,0,0,6.46V61.69a6.47,6.47,0,0,0,6.47,6.47H48.08a6.39,6.39,0,0,0,6.39-6.39V18.26Z"/><path class="cls-2" d="M48.08,68.16H6.47A6.47,6.47,0,0,1,0,61.69v.92a6.46,6.46,0,0,0,6.47,6.46H48.08a6.39,6.39,0,0,0,6.39-6.39v-.91A6.39,6.39,0,0,1,48.08,68.16Z"/><path class="cls-2" d="M34.38,0V11.79a8.3,8.3,0,0,0,8.29,8.29h11.8V18.26L36.21,0Z"/><path class="cls-3" d="M36.21,0V11.79a6.47,6.47,0,0,0,6.46,6.47h11.8Z"/><path class="cls-4" d="M11.87,21.22H9.8L8,17.55v3.67H6.37V12H8.94a2.75,2.75,0,0,1,2,.72,2.76,2.76,0,0,1,.72,2,2.68,2.68,0,0,1-.5,1.76,2.68,2.68,0,0,1-1.33.84ZM10,15a1.64,1.64,0,0,0-.35-1.2,1.48,1.48,0,0,0-1-.32H8V16.5H8.8a1,1,0,0,0,.88-.43A1.93,1.93,0,0,0,10,15Z"/><path class="cls-4" d="M19.48,13.51h-2v7.71H15.8V13.51h-2V12h5.7Z"/><path class="cls-4" d="M26.67,13.42H23.61v2.36h2.53v1.5H23.61v3.94H22V12h4.71Z"/><rect class="cls-4" x="23.15" y="40.16" width="19.6" height="1.51"/><rect class="cls-4" x="23.15" y="44.58" width="19.6" height="1.51"/><rect class="cls-4" x="11.72" y="48.99" width="31.02" height="1.51"/><rect class="cls-4" x="11.72" y="53.41" width="31.02" height="1.51"/><rect class="cls-4" x="11.72" y="57.83" width="31.02" height="1.51"/><path class="cls-4" d="M18.49,46.09h1.75l-3.39-5.93H15.11l-3.39,5.93h1.75l.5-.89h4Zm-3.65-2.4,1.14-2,1.15,2Z"/></g></g></svg>