<svg xmlns="http://www.w3.org/2000/svg" viewBox="0 0 54.47 69.07"><defs><style>.cls-1{fill:#3f51b5;}.cls-2{fill:#3949ab;}.cls-3{fill:#7986cb;}.cls-4{fill:#eee;}</style></defs><g id="Camada_2" data-name="Camada 2"><g id="Layer_1" data-name="Layer 1"><path class="cls-1" d="M36.21,0H6.46A6.46,6.46,0,0,0,0,6.46V61.69a6.47,6.47,0,0,0,6.47,6.47H48.08a6.39,6.39,0,0,0,6.39-6.39V18.26Z"/><path class="cls-2" d="M48.08,68.16H6.47A6.47,6.47,0,0,1,0,61.69v.92a6.46,6.46,0,0,0,6.47,6.46H48.08a6.39,6.39,0,0,0,6.39-6.39v-.91A6.39,6.39,0,0,1,48.08,68.16Z"/><path class="cls-2" d="M34.38,0V11.79a8.3,8.3,0,0,0,8.29,8.29h11.8V18.26L36.21,0Z"/><path class="cls-3" d="M36.21,0V11.79a6.47,6.47,0,0,0,6.46,6.47h11.8Z"/><path class="cls-4" d="M25.58,63h3.31V61.77H37.8a1.11,1.11,0,0,0,1,.64,1.1,1.1,0,0,0,0-2.2,1.11,1.11,0,0,0-1,.64H28.89v-.67a10.57,10.57,0,0,0,8.77-8.78h2.79V48.1H37.66a10.57,10.57,0,0,0-8.77-8.78v-.67H37.8a1.11,1.11,0,0,0,1,.64,1.1,1.1,0,1,0,0-2.2,1.11,1.11,0,0,0-1,.64H28.89V36.54H25.58v1.19H16.66a1.09,1.09,0,0,0-1-.64,1.1,1.1,0,0,0,0,2.2,1.09,1.09,0,0,0,1-.64h8.92v.67a10.57,10.57,0,0,0-8.77,8.78H14v3.3h2.79a10.57,10.57,0,0,0,8.77,8.78v.67H16.66a1.1,1.1,0,1,0,0,.92h8.92Zm14-14v1.48H38.05V49Zm-13-10.08V37.45H28v1.48ZM14.93,50.49V49h1.49v1.48Zm3.25-.74a9.06,9.06,0,1,1,9.05,9.06A9.07,9.07,0,0,1,18.18,49.75ZM28,60.57v1.48H26.49V60.57Z"/><path class="cls-4" d="M11.6,18.52a3,3,0,0,1-.68,2.06A2.45,2.45,0,0,1,9,21.34,2.68,2.68,0,0,1,7,20.71,2.86,2.86,0,0,1,6.3,18.8H7.82a1.1,1.1,0,0,0,.35.74,1.45,1.45,0,0,0,.9.23.93.93,0,0,0,1-1,1.15,1.15,0,0,0-.2-.67,2.15,2.15,0,0,0-.76-.55l-1-.49a5.73,5.73,0,0,1-.94-.66,2.29,2.29,0,0,1-.62-.82,3,3,0,0,1-.2-1.17,2.59,2.59,0,0,1,.69-1.91,2.52,2.52,0,0,1,1.89-.7,2.46,2.46,0,0,1,1.87.64,2.6,2.6,0,0,1,.62,1.8H9.94a.94.94,0,0,0-.27-.75,1.1,1.1,0,0,0-.77-.27,1.16,1.16,0,0,0-.8.24.88.88,0,0,0-.26.68,1,1,0,0,0,.16.6,1.55,1.55,0,0,0,.56.49,3.66,3.66,0,0,0,.59.31l.6.28c.19.1.39.21.58.33a3.06,3.06,0,0,1,.53.42,2.23,2.23,0,0,1,.57.86A3.12,3.12,0,0,1,11.6,18.52Z"/><path class="cls-4" d="M19.47,12l-2.12,9.27H15.71L13.57,12h1.7L16.57,18,17.9,12Z"/><path class="cls-4" d="M26.64,21.22H25.43V20.4a1.31,1.31,0,0,1-.5.65,2,2,0,0,1-1.2.29,1.9,1.9,0,0,1-.81-.17,2,2,0,0,1-.67-.49,2.34,2.34,0,0,1-.45-.77,2.86,2.86,0,0,1-.17-1v-4.4a2.73,2.73,0,0,1,.68-2,2.56,2.56,0,0,1,1.9-.67,2.56,2.56,0,0,1,1.77.6,2.51,2.51,0,0,1,.76,1.86H25.15a.89.89,0,0,0-.28-.72,1,1,0,0,0-.66-.23.88.88,0,0,0-.73.34,1.38,1.38,0,0,0-.28.91v4.11a1.18,1.18,0,0,0,.28.88,1,1,0,0,0,.73.27,1,1,0,0,0,.71-.27,1.27,1.27,0,0,0,.25-.88V17.31h-.75V16h2.22Z"/></g></g></svg>