<svg xmlns="http://www.w3.org/2000/svg" viewBox="0 0 54.47 69.07"><defs><style>.cls-1{fill:#757575;}.cls-2{fill:#616161;}.cls-3{fill:#eee;}</style></defs><g id="Camada_2" data-name="Camada 2"><g id="Layer_1" data-name="Layer 1"><path class="cls-1" d="M36.21,0H6.46A6.46,6.46,0,0,0,0,6.46V61.69a6.47,6.47,0,0,0,6.47,6.47H48.08a6.39,6.39,0,0,0,6.39-6.39V18.26Z"/><path class="cls-2" d="M48.08,68.16H6.47A6.47,6.47,0,0,1,0,61.69v.92a6.46,6.46,0,0,0,6.47,6.46H48.08a6.39,6.39,0,0,0,6.39-6.39v-.91A6.39,6.39,0,0,1,48.08,68.16Z"/><path class="cls-2" d="M34.38,0V11.79a8.3,8.3,0,0,0,8.29,8.29h11.8V18.26L36.21,0Z"/><path class="cls-3" d="M36.21,0V11.79a6.47,6.47,0,0,0,6.46,6.47h11.8Z"/><rect class="cls-3" x="11.72" y="40.16" width="31.02" height="1.51"/><rect class="cls-3" x="11.72" y="44.58" width="31.02" height="1.51"/><rect class="cls-3" x="11.72" y="48.99" width="31.02" height="1.51"/><rect class="cls-3" x="11.72" y="53.41" width="31.02" height="1.51"/><rect class="cls-3" x="11.72" y="57.83" width="31.02" height="1.51"/><path class="cls-3" d="M11.7,13.51h-2v7.71H8V13.51H6V12h5.7Z"/><path class="cls-3" d="M19.34,21.22h-2l-.89-3-.91,3H13.69l1.87-4.64L13.69,12h2l.94,2.85L17.52,12h1.82l-1.88,4.64Z"/><path class="cls-3" d="M27,13.51H25v7.71H23.36V13.51h-2V12H27Z"/></g></g></svg>