<svg xmlns="http://www.w3.org/2000/svg" viewBox="0 0 54.47 69.07"><defs><style>.cls-1{fill:#4caf50;}.cls-2{fill:#43a047;}.cls-3{fill:#81c784;}.cls-4{fill:#eee;}</style></defs><g id="Camada_2" data-name="Camada 2"><g id="Layer_1" data-name="Layer 1"><path class="cls-1" d="M36.21,0H6.46A6.46,6.46,0,0,0,0,6.46V61.69a6.47,6.47,0,0,0,6.47,6.47H48.08a6.39,6.39,0,0,0,6.39-6.39V18.26Z"/><path class="cls-2" d="M48.08,68.16H6.47A6.47,6.47,0,0,1,0,61.69v.92a6.46,6.46,0,0,0,6.47,6.46H48.08a6.39,6.39,0,0,0,6.39-6.39v-.91A6.39,6.39,0,0,1,48.08,68.16Z"/><path class="cls-2" d="M34.38,0V11.79a8.3,8.3,0,0,0,8.29,8.29h11.8V18.26L36.21,0Z"/><path class="cls-3" d="M36.21,0V11.79a6.47,6.47,0,0,0,6.46,6.47h11.8Z"/><rect class="cls-4" x="11.72" y="40.16" width="31.02" height="1.51"/><rect class="cls-4" x="11.72" y="46.05" width="31.02" height="1.51"/><rect class="cls-4" x="11.72" y="51.94" width="31.02" height="1.51"/><rect class="cls-4" x="11.72" y="40.16" width="1.51" height="19.19"/><rect class="cls-4" x="21.56" y="40.16" width="1.51" height="19.19"/><rect class="cls-4" x="31.4" y="40.16" width="1.51" height="19.19"/><rect class="cls-4" x="41.23" y="40.16" width="1.51" height="19.19"/><rect class="cls-4" x="11.72" y="57.83" width="31.02" height="1.51"/><path class="cls-4" d="M11.71,21.22h-2l-.9-3-.91,3H6.06l1.87-4.64L6.06,12H8L9,14.8,9.89,12h1.82L9.84,16.59Z"/><path class="cls-4" d="M19.07,21.22H14.22V12h1.63v7.71h3.22Z"/><path class="cls-4" d="M27,18.52a3,3,0,0,1-.67,2.06,2.47,2.47,0,0,1-1.95.76,2.65,2.65,0,0,1-1.93-.63,2.92,2.92,0,0,1-.75-1.91h1.52a1.1,1.1,0,0,0,.35.74,1.45,1.45,0,0,0,.9.23,1,1,0,0,0,.71-.27,1,1,0,0,0,.26-.71,1.09,1.09,0,0,0-.2-.67,2.15,2.15,0,0,0-.76-.55l-.95-.49a5.8,5.8,0,0,1-.95-.66,2.29,2.29,0,0,1-.62-.82,3,3,0,0,1-.2-1.17,2.59,2.59,0,0,1,.69-1.91,2.52,2.52,0,0,1,1.89-.7,2.48,2.48,0,0,1,1.88.64,2.69,2.69,0,0,1,.62,1.8h-1.5a.88.88,0,0,0-.27-.75,1.07,1.07,0,0,0-.76-.27,1.14,1.14,0,0,0-.8.24.85.85,0,0,0-.26.68,1.11,1.11,0,0,0,.15.6,1.64,1.64,0,0,0,.56.49,4.14,4.14,0,0,0,.59.31l.6.28a6.65,6.65,0,0,1,.58.33,3.06,3.06,0,0,1,.53.42,2.26,2.26,0,0,1,.58.86A3.13,3.13,0,0,1,27,18.52Z"/></g></g></svg>